# xmcd
#
# Track frame offsets:
#	150
#	2195
#	20317
#	45001
#	62613
#	75997
#	84351
#	92761
#	102056
#	119482
#	124671
#	156146
#	173660
#	195626
#	221954
#	225923
#
# Disc length: 3641 seconds
#
# Revision: 1
# Processed by: cddbd v1.5.2PL0 Copyright (c) Steve Scherf et al.
# Submitted via: audiograbber 1.83.01
#
DISCID=b40e3710
DTITLE=BB King - The BB King Treasures
DYEAR=2005
DGENRE=Blues
TTITLE0=Introduction
TTITLE1=1974 Interview: Influences
TTITLE2=1974 Interview: First Blues
TTITLE3=2004 XM Interview (Excerpt 1)
TTITLE4=2005 Interview: Pep-ti-kon jingle
TTITLE5=Little Mama (1962 ABC Records recording, prev. unreleased)
TTITLE6=1995 National Press Club Speech: Lucille
TTITLE7=2004 XM Interview (Excerpt 2)
TTITLE8=2005 XM Interview (Excerpt 3)
TTITLE9=1970 Interview (Berkeley Barb)
TTITLE10=1970 Interview (Berkeley Barb (2))
TTITLE11=May I Have A Little Talk With You (1971 ABC Records, prev. unreleased)
TTITLE12=1970 Interview (Berkeley Barb (3))
TTITLE13=2005 XM Interview (Excerpt 4)
TTITLE14=1995: National Press Club Speech: Knowing The Blues
TTITLE15=1995: National Press Club Speech: Blues Overview
EXTD=
EXTT0=
EXTT1=
EXTT2=
EXTT3=
EXTT4=
EXTT5=
EXTT6=
EXTT7=
EXTT8=
EXTT9=
EXTT10=
EXTT11=
EXTT12=
EXTT13=
EXTT14=
EXTT15=
PLAYORDER=
